<!--?xml version="1.0" standalone="no"?--><svg version="1.0" xmlns="http://www.w3.org/2000/svg" width="300.000000pt" height="300.000000pt" viewBox="0 0 300.000000 300.000000" preserveAspectRatio="xMidYMid meet">
<metadata>
  <rdf:rdf xmlns:rdf="http://www.w3.org/1999/02/22-rdf-syntax-ns#" xmlns:rdfs="http://www.w3.org/2000/01/rdf-schema#" xmlns:dc="http://purl.org/dc/elements/1.1/">
    <rdf:description dc:title="national school counseling icon" dc:publisher="Hiox" dc:date="2015-03-14" dc:format="image/svg+xml" dc:language="en">
      <dc:creator>
        <rdf:bag>
          <rdf:li>svgimages.com</rdf:li>
        </rdf:bag>
      </dc:creator>
    </rdf:description>
  </rdf:rdf>
</metadata>
<g transform="translate(0.000000,300.000000) scale(0.100000,-0.100000)" fill="#0B0B0B" stroke="none">
<path d="M1682 2645 c-52 -23 -62 -60 -62 -240 0 -239 6 -248 189 -255 l126
-5 91 -63 c50 -34 94 -62 97 -62 4 0 7 24 7 53 0 59 4 66 45 87 16 9 40 31 52
49 22 32 23 43 22 195 -1 254 -4 256 -319 256 -164 -1 -223 -4 -248 -15z" id="node1" class="node"></path>
<path d="M711 2337 c-19 -6 -44 -25 -55 -40 -19 -26 -21 -41 -21 -206 0 -199
6 -220 71 -247 32 -14 34 -17 34 -64 0 -28 5 -50 10 -50 6 0 29 12 51 26 111
70 116 71 249 76 111 3 130 6 158 27 18 12 35 34 39 49 5 15 8 97 8 182 0 256
3 254 -295 257 -150 2 -225 -1 -249 -10z" id="node2" class="node"></path>
<path d="M2426 2230 c-54 -27 -85 -58 -107 -105 -35 -76 -19 -169 41 -226 90
-86 230 -73 304 28 32 43 36 55 36 111 0 69 -24 120 -77 162 -67 52 -132 62
-197 30z" id="node3" class="node"></path>
<path d="M408 1809 c-30 -12 -68 -79 -68 -123 0 -45 37 -106 75 -122 77 -32
152 -7 185 60 24 50 25 75 6 121 -27 64 -117 93 -198 64z" id="node4" class="node"></path>
<path d="M2504 1746 c-36 -16 -69 -56 -114 -141 -63 -116 -40 -105 -213 -105
-143 0 -154 -1 -180 -23 -23 -18 -29 -31 -29 -62 0 -72 12 -75 257 -75 l213 0
54 98 c29 53 55 102 57 107 2 6 13 22 23 38 16 22 27 27 64 27 36 0 44 -3 44
-18 0 -10 -4 -22 -9 -27 -5 -6 -25 -39 -44 -75 -36 -68 -111 -204 -125 -230
-6 -9 -27 -16 -56 -18 -43 -3 -46 -5 -46 -32 0 -47 -36 -75 -132 -105 -49 -14
-92 -23 -98 -20 -5 3 -10 40 -10 81 l0 74 -660 0 -660 0 0 -95 0 -95 -33 0
c-40 0 -157 24 -183 38 -11 6 -26 22 -34 37 -13 24 -17 25 -54 18 -123 -23
-141 -7 -141 129 0 95 1 101 22 109 39 14 53 -12 53 -103 0 -72 2 -79 17 -73
45 17 105 35 188 55 115 28 157 41 174 56 18 17 17 62 -3 82 -15 15 -24 14
-124 -11 -60 -15 -116 -27 -124 -27 -9 0 -18 13 -22 32 -8 40 -78 108 -112
108 -38 0 -83 -27 -104 -63 -18 -29 -20 -51 -20 -239 l0 -207 31 -36 c39 -44
32 -47 -87 -43 l-89 3 -11 80 c-6 44 -17 150 -23 235 -7 85 -16 177 -21 203
-6 27 -10 70 -10 96 0 26 -5 52 -12 59 -7 7 -36 12 -66 12 l-54 0 6 -32 c8
-40 17 -113 52 -423 19 -179 27 -312 31 -523 l5 -282 54 0 54 0 2 228 3 227
210 0 210 0 5 -225 5 -225 57 -3 58 -3 0 276 c0 303 2 311 57 238 l28 -36 3
-239 3 -238 74 0 74 0 3 103 3 102 44 6 c49 6 81 36 81 74 0 13 -29 69 -65
126 l-65 102 0 103 c0 56 3 109 6 118 5 14 59 16 504 16 433 0 499 -2 504 -15
8 -22 -2 -41 -29 -53 -13 -6 -54 -54 -92 -108 -37 -53 -80 -113 -94 -133 -74
-104 -157 -221 -186 -265 -50 -72 -43 -130 19 -162 50 -26 91 -12 138 49 56
70 127 170 175 245 64 98 70 88 73 -126 l2 -182 75 0 75 0 0 255 0 255 26 10
c14 6 34 10 45 10 18 0 19 -10 19 -265 l0 -266 58 3 57 3 5 225 5 225 210 0
210 0 3 -227 2 -228 54 0 54 0 5 282 c4 211 12 344 31 523 35 310 44 383 52
423 l6 32 -54 0 c-30 0 -59 -5 -66 -12 -7 -7 -12 -34 -12 -61 0 -26 -4 -67 -9
-90 -5 -23 -15 -114 -22 -202 -6 -87 -17 -195 -23 -240 l-11 -80 -54 -3 c-82
-5 -92 3 -47 40 64 52 66 64 66 376 l0 278 -27 55 c-22 42 -38 59 -73 77 -50
25 -118 28 -166 8z" id="node5" class="node"></path>
</g>
<g transform="translate(0.000000,300.000000) scale(0.100000,-0.100000)" fill="#A0A0A0" stroke="none">


</g>
</svg>