<?xml version="1.0" encoding="UTF-8"?>
<svg id="a" data-name="Layer 1" xmlns="http://www.w3.org/2000/svg" viewBox="0 0 1280 1205.01">
  <defs>
    <style>
      .b {
        fill: #ffd78d;
      }

      .c {
        fill: #cfbb2c;
      }

      .d {
        fill: #91d7ea;
      }

      .e {
        fill: #dcbf25;
      }

      .f {
        fill: #ffce73;
      }

      .g {
        fill: #b9d659;
      }

      .h {
        fill: #9acb58;
      }
    </style>
  </defs>
  <path class="b" d="m718.27,960.91c-3.57,0-8.14,3.31-13.57,10.83-17.36,24.04-69.6,33.04-131.2,33.04-82.95,0-182.87-16.32-237.36-34.2-1.06-.35-2.11-.51-3.12-.51-6.92,0-12.08,7.57-8.41,14.29,21.58,39.59,69.08,118.75,115.28,142.14,8.69,4.4,2.78,11.11,88.27,11.11,16.3,0,35.93-.24,59.61-.8,129.92-3.02,156.32-175.9,130.5-175.9"/>
  <path class="b" d="m525.29,926.18c-94.8,0-171.65,10.03-171.65,22.42s76.85,31.18,171.65,31.18c35.03,1.26,60.13,3.15,81.23,3.15,6.67,0,12.95-.19,19.01-.65,51.35-3.88,71.42-25.37,71.42-33.68,0-12.38-76.85-22.42-171.66-22.42"/>
  <path class="g" d="m730.52,1096.56c-22.71,0-40.24,12.72-48.14,26.87-12.46,22.36-33.53,25.15-72.22,29.02-17.46,1.74-34.75,3.05-53.05,3.05-1.79,0-3.59-.01-5.4-.04-.61,0-1.22-.01-1.81-.01-7.24,0-13.29.62-19.64,1.23-6.34.61-12.98,1.23-21.38,1.23h-.08c-10.15,0-20.29-1.12-30.27-2.94-14.44-2.64-26.55-4.5-34.84-7.19-16.8-5.45-26.17-15.96-31.27-23.21-8.17-11.61-20.64-15.48-20.64-15.48-35.89,1.4-68.51,5.78-73.49,24.54-2.11,7.96,2.34,16.25,9.74,19.87,29.93,14.68,119.57,51.51,215.53,51.51,15.09,0,30.34-.91,45.54-2.96,124.24-16.77,227.62-50.46,185.22-90.51-15.76-10.72-30.65-14.98-43.8-14.98"/>
  <path class="b" d="m769.42,949.84c-9.86,0-19.58,1.19-28.32,3.65-3.34.94-4.19,5.29-1.52,7.52,11.36,9.49,33.99,31.44,31.16,53.57-3.22,25.27-25.29,31.02-54.23,47.09-3.94,2.19-2.3,8.13,2.04,8.13.13,0,.26,0,.39-.02,29.26-2.33,88.36-12.06,115.25-52.45,28.39-42.63-19.69-67.5-64.77-67.5"/>
  <path class="d" d="m365.27,0C238.81,0,77.51,44.49,9.58,250.84c-39.81,172.8,56.09,305.78,74.19,330.21,18.09,24.42,37.99,95.9-38,155.61,0,0,121.83,9.65,233.88,9.65,56.02,0,109.6-2.41,144.28-9.65,4.51-.94,8.98-1.9,13.41-2.88-44.2-38.77-72.89-91.24-87.59-136.76-54.85-169.85,79.25-344.61,257.33-356.64,20.83-1.41,43.38-2.23,67.69-2.23,8.15,0,16.51.09,25.05.29,9.23.21,18.42.39,27.54.57C687.63,114.34,576.8,23.66,445.29,5.61c-23.81-3.27-50.99-5.61-80.01-5.61"/>
  <path class="g" d="m474.37,724.73c-12.01,3.24-24.36,6.23-37.03,9.04,11.72,10.28,24.53,19.59,38.46,27.56-3.81-11.74-5.37-22.94-2.65-32.62.36-1.29.77-2.62,1.23-3.98m86.01-31.52c-9.28,4.61-18.85,8.85-28.71,12.77-1.22,2.21-2.44,4.32-3.67,6.34-12.73,20.92-14,43.36-12.68,66.71,9.37,3.11,19.13,5.64,29.3,7.51.32-6.82.78-13.76,1.42-20.75,2.88-31.67,6.4-54.84,14.35-72.58m151.15-177.92c-10.54,29.55-24.59,58.58-43.34,85.66-10.31,14.89-21.47,28.12-33.46,39.93,2.72-.79,5.53-1.58,8.43-2.36,22.96-6.16,53.16-30.74,68.37-123.24m15.82-276.3c3.05,9.58,5.68,19.35,7.87,29.31,6.08,27.65,8.06,52.64,7.15,72.09-2.02,43.32-7.12,93.66-21.08,143.98,29.6,52.43-13.71,183.04-93.01,228.49-42.07,24.11-49.35,49.53-49.75,77.29,4.97.18,9.94.27,14.89.27,57.9,0,114.67-12.05,174.37-24.1,59.71-12.05,122.36-24.1,191.98-24.1,6.3,0,12.65.1,19.07.31,155.3,5,215.69,84.63,253.96,141.38,38.26,56.75,35.41,70.77,35.41,70.77,35.98-140.28-18.72-345.73-53.69-453.64-25.59-78.98-75.31-149.06-145.25-193.8-99.96-63.96-215.25-65.79-341.93-68.26"/>
  <path class="h" d="m674.77,238.14c-24.3,0-46.86.82-67.69,2.23-178.07,12.04-312.18,186.8-257.33,356.64,14.7,45.52,43.38,97.99,87.59,136.76,12.67-2.81,25.02-5.8,37.03-9.04,12.2-36.45,56.8-98.38,78.08-193.54,22.09-98.72-38.84-143.87-97.81-222.81,0,0,134.6,47.69,176.02,134.78,29.16,61.33-19.01,111.21-41.47,143.99-17.42,25.43-30.41,53.54-41.12,82.44-4.89,13.19-10.56,25.8-16.4,36.39,9.86-3.92,19.44-8.16,28.71-12.77,11.55-25.8,32.46-40.1,74.35-52.32,11.99-11.82,23.16-25.05,33.46-39.93,18.75-27.08,32.8-56.11,43.34-85.66,1.9-11.56,3.57-24.17,4.96-37.95,1.78,2.15,3.38,4.5,4.81,7.04,13.97-50.32,19.07-100.66,21.08-143.98.91-19.45-1.07-44.44-7.15-72.09-2.19-9.96-4.82-19.74-7.87-29.31-9.12-.18-18.3-.36-27.54-.57-8.55-.19-16.9-.29-25.05-.29"/>
  <path class="f" d="m544.62,786.54c-2.6,56.4,5.33,104.92,16.47,104.92,3.12,0,6.5-3.81,9.96-12.32,13.25-32.55,7.1-61.87,7.49-88.97-.8-.03-1.59-.06-2.38-.09-10.91-.47-21.43-1.68-31.54-3.53"/>
  <path class="e" d="m721.3,484.38c-2.87,10.33-6.1,20.65-9.77,30.91-15.21,92.49-45.41,117.08-68.37,123.24-2.9.78-5.71,1.56-8.43,2.36-22.06,21.73-46.9,38.67-74.35,52.32-7.94,17.74-11.46,40.91-14.35,72.58-.64,6.98-1.11,13.92-1.42,20.75,10.11,1.86,20.63,3.06,31.54,3.53.8.03,1.59.07,2.38.09.4-27.76,7.68-53.17,49.75-77.29,79.29-45.45,122.61-176.07,93.01-228.49"/>
  <path class="c" d="m634.73,640.89c-41.89,12.22-62.8,26.52-74.35,52.32,27.45-13.65,52.29-30.59,74.35-52.32m81.76-163.54c-1.39,13.78-3.05,26.39-4.96,37.95,3.66-10.26,6.9-20.59,9.77-30.91-1.43-2.54-3.03-4.89-4.81-7.04"/>
  <path class="f" d="m475.8,761.34c10.3,31.71,37.06,67.42,40.56,88.13.59,3.5,1,5.08,1.32,5.08.54,0,.78-4.61,1.08-12.17.88-21.54-2.28-42.79-3.44-63.35-14.07-4.67-27.22-10.65-39.52-17.69"/>
  <path class="e" d="m531.67,705.98c-18.14,7.21-37.25,13.34-57.3,18.75-.46,1.36-.87,2.69-1.23,3.98-2.72,9.68-1.16,20.88,2.65,32.62,12.3,7.04,25.46,13.02,39.52,17.69-1.32-23.35-.05-45.79,12.68-66.71,1.23-2.02,2.45-4.13,3.67-6.34"/>
  <path class="c" d="m454.65,308.38c58.97,78.94,119.9,124.09,97.81,222.81-21.29,95.16-65.88,157.09-78.08,193.54,20.04-5.41,39.16-11.54,57.3-18.75,5.84-10.59,11.51-23.2,16.4-36.39,10.71-28.9,23.7-57.01,41.12-82.44,22.46-32.78,70.63-82.66,41.47-143.99-41.42-87.09-176.02-134.78-176.02-134.78"/>
</svg>