<?xml version="1.0" encoding="UTF-8"?>
<svg id="a" data-name="Layer 1" xmlns="http://www.w3.org/2000/svg" viewBox="0 0 1280 310.85">
  <defs>
    <style>
      .b {
        fill: #ffd78d;
      }

      .c {
        fill: #cfbb2c;
      }

      .d {
        fill: #91d7ea;
      }

      .e {
        fill: #dcbf25;
      }

      .f {
        fill: #ffce73;
      }

      .g {
        fill: #b9d659;
      }

      .h {
        fill: #9acb58;
      }

      .i {
        fill: #191e4c;
      }
    </style>
  </defs>
  <g>
    <path class="b" d="m185.29,247.88c-.92,0-2.1.85-3.5,2.79-4.48,6.2-17.95,8.52-33.84,8.52-21.4,0-47.17-4.21-61.23-8.82-.27-.09-.54-.13-.8-.13-1.78,0-3.12,1.95-2.17,3.69,5.57,10.21,17.82,30.63,29.74,36.67,2.24,1.13.72,2.87,22.77,2.87,4.21,0,9.27-.06,15.38-.21,33.51-.78,40.32-45.38,33.66-45.38"/>
    <path class="b" d="m135.51,238.93c-24.46,0-44.28,2.59-44.28,5.78s19.83,8.04,44.28,8.04c9.04.32,15.51.81,20.96.81,1.72,0,3.34-.05,4.9-.17,13.25-1,18.42-6.55,18.42-8.69,0-3.19-19.83-5.78-44.28-5.78"/>
    <path class="g" d="m188.45,282.88c-5.86,0-10.38,3.28-12.42,6.93-3.22,5.77-8.65,6.49-18.63,7.49-4.5.45-8.96.79-13.68.79-.46,0-.93,0-1.39-.01-.16,0-.31,0-.47,0-1.87,0-3.43.16-5.07.32-1.64.16-3.35.32-5.52.32h-.02c-2.62,0-5.23-.29-7.81-.76-3.73-.68-6.85-1.16-8.99-1.86-4.33-1.41-6.75-4.12-8.07-5.99-2.11-2.99-5.32-3.99-5.32-3.99-9.26.36-17.67,1.49-18.96,6.33-.54,2.05.6,4.19,2.51,5.13,7.72,3.79,30.85,13.29,55.6,13.29,3.89,0,7.83-.23,11.75-.76,32.05-4.32,58.72-13.02,47.78-23.35-4.07-2.77-7.91-3.87-11.3-3.87"/>
    <path class="b" d="m198.48,245.03c-2.54,0-5.05.31-7.3.94-.86.24-1.08,1.36-.39,1.94,2.93,2.45,8.77,8.11,8.04,13.82-.83,6.52-6.52,8-13.99,12.15-1.02.57-.59,2.1.53,2.1.03,0,.07,0,.1,0,7.55-.6,22.79-3.11,29.73-13.53,7.32-11-5.08-17.41-16.71-17.41"/>
    <path class="d" d="m94.23,0C61.6,0,20,11.48,2.47,64.71c-10.27,44.58,14.47,78.88,19.14,85.18,4.67,6.3,9.8,24.74-9.8,40.14,0,0,31.43,2.49,60.33,2.49,14.45,0,28.27-.62,37.22-2.49,1.16-.24,2.32-.49,3.46-.74-11.4-10-18.8-23.54-22.59-35.28-14.15-43.81,20.45-88.9,66.38-92,5.37-.36,11.19-.57,17.46-.57,2.1,0,4.26.02,6.46.07,2.38.05,4.75.1,7.1.15C177.39,29.5,148.8,6.1,114.87,1.45c-6.14-.84-13.15-1.45-20.64-1.45"/>
    <path class="g" d="m122.37,186.96c-3.1.84-6.28,1.61-9.55,2.33,3.02,2.65,6.33,5.05,9.92,7.11-.98-3.03-1.39-5.92-.68-8.41.09-.33.2-.68.32-1.03m22.19-8.13c-2.39,1.19-4.86,2.28-7.41,3.29-.31.57-.63,1.12-.95,1.64-3.28,5.4-3.61,11.19-3.27,17.21,2.42.8,4.94,1.46,7.56,1.94.08-1.76.2-3.55.37-5.35.74-8.17,1.65-14.15,3.7-18.72m38.99-45.9c-2.72,7.62-6.34,15.11-11.18,22.1-2.66,3.84-5.54,7.25-8.63,10.3.7-.2,1.43-.41,2.17-.61,5.92-1.59,13.71-7.93,17.64-31.79m4.08-71.28c.79,2.47,1.47,4.99,2.03,7.56,1.57,7.13,2.08,13.58,1.84,18.6-.52,11.18-1.84,24.16-5.44,37.14,7.64,13.52-3.54,47.22-23.99,58.94-10.85,6.22-12.73,12.78-12.83,19.94,1.28.05,2.56.07,3.84.07,14.94,0,29.58-3.11,44.98-6.22,15.4-3.11,31.56-6.22,49.53-6.22,1.63,0,3.26.03,4.92.08,40.06,1.29,55.64,21.83,65.51,36.47,9.87,14.64,9.13,18.26,9.13,18.26,9.28-36.19-4.83-89.19-13.85-117.02-6.6-20.38-19.43-38.45-37.47-50-25.79-16.5-55.53-16.97-88.21-17.61"/>
    <path class="h" d="m174.07,61.43c-6.27,0-12.09.21-17.46.57-45.94,3.11-80.53,48.19-66.38,92,3.79,11.74,11.19,25.28,22.59,35.28,3.27-.72,6.45-1.5,9.55-2.33,3.15-9.4,14.65-25.38,20.14-49.93,5.7-25.47-10.02-37.11-25.23-57.48,0,0,34.72,12.3,45.41,34.77,7.52,15.82-4.9,28.69-10.7,37.14-4.49,6.56-7.84,13.81-10.61,21.27-1.26,3.4-2.72,6.66-4.23,9.39,2.54-1.01,5.01-2.1,7.41-3.29,2.98-6.66,8.37-10.35,19.18-13.5,3.09-3.05,5.97-6.46,8.63-10.3,4.84-6.99,8.46-14.48,11.18-22.1.49-2.98.92-6.24,1.28-9.79.46.56.87,1.16,1.24,1.82,3.6-12.98,4.92-25.97,5.44-37.14.23-5.02-.28-11.46-1.84-18.6-.56-2.57-1.24-5.09-2.03-7.56-2.35-.05-4.72-.09-7.1-.15-2.2-.05-4.36-.07-6.46-.07"/>
    <path class="f" d="m140.49,202.9c-.67,14.55,1.37,27.07,4.25,27.07.81,0,1.68-.98,2.57-3.18,3.42-8.4,1.83-15.96,1.93-22.95-.21,0-.41-.02-.62-.02-2.82-.12-5.53-.43-8.14-.91"/>
    <path class="e" d="m186.07,124.96c-.74,2.66-1.57,5.33-2.52,7.97-3.92,23.86-11.72,30.2-17.64,31.79-.75.2-1.47.4-2.17.61-5.69,5.61-12.1,9.98-19.18,13.5-2.05,4.58-2.96,10.55-3.7,18.72-.16,1.8-.29,3.59-.37,5.35,2.61.48,5.32.79,8.14.91.21,0,.41.02.62.02.1-7.16,1.98-13.72,12.83-19.94,20.46-11.73,31.63-45.42,23.99-58.94"/>
    <path class="c" d="m163.74,165.33c-10.81,3.15-16.2,6.84-19.18,13.5,7.08-3.52,13.49-7.89,19.18-13.5m21.09-42.19c-.36,3.55-.79,6.81-1.28,9.79.94-2.65,1.78-5.31,2.52-7.97-.37-.65-.78-1.26-1.24-1.82"/>
    <path class="f" d="m122.74,196.4c2.66,8.18,9.56,17.39,10.46,22.73.15.9.26,1.31.34,1.31.14,0,.2-1.19.28-3.14.23-5.56-.59-11.04-.89-16.34-3.63-1.21-7.02-2.75-10.2-4.56"/>
    <path class="e" d="m137.15,182.12c-4.68,1.86-9.61,3.44-14.78,4.84-.12.35-.22.69-.32,1.03-.7,2.5-.3,5.39.68,8.41,3.17,1.82,6.57,3.36,10.2,4.56-.34-6.02-.01-11.81,3.27-17.21.32-.52.63-1.07.95-1.64"/>
    <path class="c" d="m117.28,79.55c15.21,20.37,30.93,32.01,25.23,57.48-5.49,24.55-17,40.52-20.14,49.93,5.17-1.4,10.1-2.98,14.78-4.84,1.51-2.73,2.97-5.98,4.23-9.39,2.76-7.46,6.11-14.71,10.61-21.27,5.79-8.46,18.22-21.32,10.7-37.14-10.68-22.47-45.41-34.77-45.41-34.77"/>
  </g>
  <g>
    <path class="i" d="m417.68,74.4h17.02c13.47,0,23.49,3.56,30.06,10.68,6.57,7.12,9.85,15.25,9.85,24.4s-3.39,17.36-10.18,24.45c-6.79,7.08-16.67,10.62-29.62,10.62h-17.13v-70.15Zm9.58,9.36v51.32h.55c7.12,0,12.48-.32,16.08-.97,3.6-.64,7.01-2.04,10.24-4.21,3.23-2.17,5.8-5.04,7.71-8.61,1.91-3.59,2.86-7.53,2.86-11.81,0-5.41-1.52-10.28-4.56-14.66-3.05-4.36-6.69-7.29-10.93-8.81-4.25-1.49-9.95-2.25-17.11-2.25h-4.85Z"/>
    <path class="i" d="m482.21,121.65c0-6.2,2.45-11.72,7.35-16.54,4.89-4.83,10.52-7.24,16.87-7.24s12.25,2.37,17.13,7.13c4.88,4.75,7.32,10.3,7.32,16.65s-2.4,12.02-7.18,16.87c-4.8,4.87-10.33,7.3-16.6,7.3-6.72,0-12.54-2.41-17.49-7.22-4.93-4.81-7.4-10.46-7.4-16.96Zm39.42.02c0-3.85-1.47-7.22-4.4-10.07-2.94-2.84-6.42-4.27-10.46-4.27s-7.72,1.44-10.71,4.33c-3,2.89-4.49,6.34-4.49,10.34s1.52,7.17,4.54,10.05c3.03,2.86,6.58,4.31,10.66,4.31s7.44-1.48,10.41-4.42c2.97-2.95,4.45-6.36,4.45-10.27Z"/>
    <path class="i" d="m539.36,84.21c0-1.98.73-3.7,2.2-5.15,1.47-1.44,3.22-2.17,5.24-2.17s3.7.72,5.14,2.17,2.18,3.17,2.18,5.15-.72,3.74-2.18,5.18c-1.44,1.43-3.16,2.14-5.14,2.14s-3.77-.71-5.24-2.14c-1.47-1.43-2.2-3.16-2.2-5.18Zm2.7,14.93h9.47v45.42h-9.47v-45.42Z"/>
    <path class="i" d="m564.09,144.55v-45.42h9.36v7.54c2.75-3.05,5.25-5.27,7.49-6.69,2.24-1.41,4.74-2.12,7.49-2.12,4.11,0,7.62,1.36,10.55,4.07,2.91,2.72,4.37,5.98,4.37,9.8v32.82h-9.58v-30c0-2.46-.8-4.5-2.39-6.12-1.6-1.62-3.63-2.42-6.09-2.42-3.19,0-5.95,1.35-8.26,4.05-2.31,2.69-3.46,5.96-3.46,9.78v24.72h-9.47Z"/>
    <path class="i" d="m653.07,99.13h9.36v43.61c0,6.41-2.21,11.88-6.64,16.37-4.42,4.5-9.76,6.75-16.04,6.75-4.77,0-9.16-1.3-13.17-3.89-4-2.58-6.94-6.52-8.81-11.81h9.91c2.97,4.92,7.11,7.38,12.39,7.38,3.6,0,6.66-1.3,9.19-3.88,2.53-2.59,3.81-5.7,3.81-9.34v-8.59c-4.63,6.72-10.46,10.08-17.51,10.08-5.8,0-10.87-2.4-15.17-7.19-4.32-4.78-6.47-10.45-6.47-16.98s2.1-12.13,6.3-16.79c4.21-4.66,9.21-7,15.01-7,7.49,0,13.43,3.62,17.84,10.84v-9.57Zm1.32,22.62c0-4.26-1.48-7.82-4.44-10.68-2.95-2.86-6.61-4.29-10.98-4.29-4,0-7.53,1.48-10.57,4.47-3.05,2.96-4.58,6.4-4.58,10.29,0,4.22,1.51,7.86,4.52,10.9,3.01,3.05,6.6,4.58,10.74,4.58s7.82-1.49,10.82-4.47c2.99-2.97,4.49-6.57,4.49-10.79Z"/>
    <polygon class="i" points="710.89 74.4 720.36 74.4 720.36 135.08 743.2 135.08 743.2 144.55 710.89 144.55 710.89 74.4"/>
    <path class="i" d="m750.2,84.21c0-1.98.73-3.7,2.2-5.15,1.47-1.44,3.21-2.17,5.22-2.17s3.7.72,5.15,2.17c1.44,1.46,2.18,3.17,2.18,5.15s-.73,3.74-2.18,5.18c-1.46,1.43-3.17,2.14-5.15,2.14s-3.76-.71-5.22-2.14-2.2-3.16-2.2-5.18Zm2.69,14.93h9.47v45.42h-9.47v-45.42Z"/>
    <path class="i" d="m804.1,73.8v9.69c-2.79-1.88-5.19-2.81-7.21-2.81-1.69,0-3.01.62-3.96,1.87-.95,1.24-1.43,2.97-1.43,5.21v11.37h12.6v8.75h-12.6v36.67h-9.58v-36.67h-8.37v-8.75h8.37v-10.72c0-5.16,1.32-9.29,3.99-12.37,2.66-3.07,6.22-4.61,10.66-4.61,2.2,0,4.71.8,7.54,2.37Z"/>
    <path class="i" d="m859.6,123.68h-38.76c.84,4.67,2.77,8.08,5.75,10.22,3,2.15,6.25,3.22,9.78,3.22,5.43,0,9.98-2.25,13.66-6.77l7,5.29c-5.25,6.79-12.28,10.19-21.09,10.19-6.75,0-12.41-2.32-16.96-6.95-4.55-4.63-6.83-10.36-6.83-17.23,0-6.42,2.3-11.99,6.91-16.71,4.6-4.71,10.23-7.07,16.87-7.07s12.14,2.4,16.8,7.18c4.66,4.8,6.95,11.01,6.88,18.64Zm-37.77-7.65h27.75c-3.08-6.24-7.64-9.36-13.66-9.36-6.57,0-11.27,3.12-14.1,9.36Z"/>
    <polygon class="i" points="898.36 74.4 941.26 74.4 941.26 83.99 924.52 83.99 924.52 144.55 915.05 144.55 915.05 83.99 898.36 83.99 898.36 74.4"/>
    <path class="i" d="m939.55,121.65c0-6.2,2.45-11.72,7.35-16.54,4.89-4.83,10.52-7.24,16.87-7.24s12.25,2.37,17.13,7.13c4.88,4.75,7.32,10.3,7.32,16.65s-2.4,12.02-7.18,16.87c-4.8,4.87-10.33,7.3-16.6,7.3-6.72,0-12.54-2.41-17.48-7.22-4.93-4.81-7.4-10.46-7.4-16.96Zm39.42.02c0-3.85-1.47-7.22-4.4-10.07-2.94-2.84-6.42-4.27-10.46-4.27s-7.72,1.44-10.71,4.33c-3,2.89-4.49,6.34-4.49,10.34s1.52,7.17,4.54,10.05c3.03,2.86,6.58,4.31,10.66,4.31s7.44-1.48,10.41-4.42c2.97-2.95,4.45-6.36,4.45-10.27Z"/>
    <path class="i" d="m1036.3,99.13h9.36v43.61c0,6.41-2.21,11.88-6.64,16.37-4.42,4.5-9.76,6.75-16.04,6.75-4.77,0-9.16-1.3-13.17-3.89-4-2.58-6.94-6.52-8.81-11.81h9.91c2.97,4.92,7.11,7.38,12.39,7.38,3.6,0,6.66-1.3,9.19-3.88,2.53-2.59,3.81-5.7,3.81-9.34v-8.59c-4.63,6.72-10.46,10.08-17.51,10.08-5.8,0-10.87-2.4-15.17-7.19-4.32-4.78-6.47-10.45-6.47-16.98s2.1-12.13,6.3-16.79c4.21-4.66,9.21-7,15.01-7,7.49,0,13.43,3.62,17.84,10.84v-9.57Zm1.32,22.62c0-4.26-1.48-7.82-4.44-10.68-2.95-2.86-6.61-4.29-10.98-4.29-4,0-7.53,1.48-10.57,4.47-3.05,2.96-4.58,6.4-4.58,10.29,0,4.22,1.51,7.86,4.52,10.9s6.6,4.58,10.74,4.58,7.82-1.49,10.82-4.47c2.99-2.97,4.49-6.57,4.49-10.79Z"/>
    <path class="i" d="m1103.8,123.68h-38.76c.84,4.67,2.75,8.08,5.75,10.22,2.99,2.15,6.25,3.22,9.78,3.22,5.43,0,9.98-2.25,13.66-6.77l6.99,5.29c-5.25,6.79-12.27,10.19-21.08,10.19-6.75,0-12.41-2.32-16.96-6.95-4.55-4.63-6.83-10.36-6.83-17.23,0-6.42,2.3-11.99,6.91-16.71,4.6-4.71,10.23-7.07,16.87-7.07s12.13,2.4,16.79,7.18c4.66,4.8,6.96,11.01,6.89,18.64Zm-37.77-7.65h27.75c-3.08-6.24-7.64-9.36-13.66-9.36-6.57,0-11.27,3.12-14.1,9.36Z"/>
    <polygon class="i" points="1117.9 85.92 1127.48 85.92 1127.48 99.13 1136.95 99.13 1136.95 107.88 1127.48 107.88 1127.48 144.55 1117.9 144.55 1117.9 107.88 1110.35 107.88 1110.35 99.01 1117.9 99.01 1117.9 85.92"/>
    <path class="i" d="m1143.28,73.08h9.58v33.48c2.64-3.05,5.11-5.26,7.4-6.63,2.3-1.38,5.1-2.07,8.41-2.07,3.85,0,7.18,1.48,9.98,4.43,2.81,2.96,4.22,6.5,4.22,10.6v31.67h-9.58v-28.96c0-2.86-.73-5.15-2.18-6.89-1.46-1.71-3.36-2.58-5.75-2.58-3.45,0-6.4,1.31-8.85,3.9-2.43,2.62-3.66,5.78-3.66,9.47v25.06h-9.58v-71.47Z"/>
    <path class="i" d="m1240.14,123.68h-38.76c.84,4.67,2.75,8.08,5.75,10.22,2.99,2.15,6.25,3.22,9.78,3.22,5.43,0,9.98-2.25,13.66-6.77l6.99,5.29c-5.25,6.79-12.27,10.19-21.08,10.19-6.75,0-12.41-2.32-16.96-6.95-4.55-4.63-6.83-10.36-6.83-17.23,0-6.42,2.3-11.99,6.91-16.71,4.6-4.71,10.23-7.07,16.87-7.07s12.13,2.4,16.79,7.18c4.66,4.8,6.96,11.01,6.89,18.64Zm-37.77-7.65h27.75c-3.08-6.24-7.64-9.36-13.66-9.36-6.57,0-11.27,3.12-14.1,9.36Z"/>
    <path class="i" d="m1261.83,99.13v9.35c2.13-3.74,4.21-6.45,6.25-8.11,2.03-1.68,4.69-2.51,7.95-2.51.92,0,2.24.22,3.96.66l-2.92,9.58c-1.84-.37-3.05-.55-3.63-.55-3.23,0-5.93,1.13-8.11,3.39-2.19,2.25-3.28,5.08-3.28,8.45v25.16h-9.58v-45.42h9.36Z"/>
    <path class="i" d="m460.05,217.17v8.43c-5.87-2.88-11.29-4.32-16.22-4.32-6.34,0-11.69,2.04-16.02,6.14-4.34,4.09-6.51,9.12-6.51,15.07s2.21,11.15,6.66,15.21c4.44,4.06,10,6.09,16.68,6.09,4.86,0,10-1.52,15.42-4.58v8.52c-4.93,2.63-10.29,3.94-16.05,3.94-8.45,0-15.67-2.85-21.67-8.58-6-5.71-8.99-12.62-8.99-20.69s2.95-14.72,8.85-20.36c5.89-5.65,12.99-8.48,21.3-8.48,5.33,0,10.87,1.2,16.57,3.6Z"/>
    <path class="i" d="m466.22,252.03c0-4.82,1.91-9.12,5.71-12.87,3.82-3.76,8.2-5.63,13.13-5.63s9.52,1.85,13.32,5.54c3.79,3.7,5.69,8.01,5.69,12.96s-1.86,9.35-5.59,13.13c-3.72,3.78-8.03,5.67-12.91,5.67-5.22,0-9.75-1.86-13.59-5.6-3.84-3.74-5.76-8.14-5.76-13.19Zm30.66.02c0-3.01-1.14-5.62-3.43-7.83-2.28-2.21-4.99-3.33-8.14-3.33s-6,1.13-8.33,3.36c-2.32,2.25-3.49,4.93-3.49,8.05s1.17,5.58,3.54,7.81c2.35,2.23,5.11,3.34,8.28,3.34s5.79-1.14,8.1-3.43c2.31-2.29,3.46-4.94,3.46-7.98Z"/>
    <path class="i" d="m510.76,234.51h7.45v19.92c0,6.14,2.7,9.2,8.1,9.2,2.4,0,4.29-.82,5.69-2.46,1.41-1.64,2.1-3.89,2.1-6.74v-19.92h7.37v21.12c0,4.43-1.44,8.06-4.33,10.91-2.88,2.86-6.56,4.28-11.05,4.28s-8.26-1.42-11.09-4.28c-2.83-2.85-4.25-6.57-4.25-11.17v-20.86Z"/>
    <path class="i" d="m549.09,269.85v-35.34h7.28v5.87c2.14-2.37,4.07-4.1,5.82-5.2,1.74-1.1,3.68-1.65,5.82-1.65,3.19,0,5.93,1.05,8.2,3.17,2.28,2.12,3.4,4.65,3.4,7.62v25.52h-7.45v-23.35c0-1.91-.61-3.49-1.86-4.75-1.24-1.26-2.81-1.88-4.74-1.88-2.48,0-4.63,1.05-6.42,3.14-1.8,2.1-2.69,4.64-2.69,7.6v19.23h-7.37Z"/>
    <path class="i" d="m610.2,238.72l-4.97,4.36c-1.28-.91-2.4-1.6-3.34-2.07-.94-.48-2.06-.71-3.34-.71-3.02,0-4.54,1.11-4.54,3.34,0,1.6,1.92,3.16,5.76,4.66s6.61,3.16,8.28,4.96c1.69,1.79,2.53,3.96,2.53,6.5,0,2.96-1.21,5.56-3.65,7.77-2.42,2.2-5.27,3.3-8.57,3.3-4.99,0-9.09-2.3-12.28-6.93l5.86-2.84c2.06,2.01,4.2,3.01,6.42,3.01,1.54,0,2.89-.43,4.05-1.27,1.15-.84,1.74-1.81,1.74-2.94,0-1.96-2.03-3.73-6.08-5.31-4.06-1.58-6.86-3.17-8.42-4.78-1.55-1.6-2.34-3.6-2.34-5.96,0-2.95,1.11-5.4,3.32-7.34,2.21-1.96,4.99-2.94,8.33-2.94s7.08,1.73,11.22,5.19Z"/>
    <path class="i" d="m653.37,253.62h-30.15c.66,3.62,2.15,6.26,4.48,7.94,2.32,1.66,4.86,2.51,7.6,2.51,4.23,0,7.77-1.76,10.62-5.27l5.44,4.11c-4.09,5.29-9.56,7.92-16.41,7.92-5.25,0-9.64-1.79-13.19-5.38-3.54-3.6-5.31-8.08-5.31-13.41,0-4.99,1.8-9.32,5.37-12.99,3.59-3.67,7.97-5.51,13.13-5.51s9.43,1.86,13.07,5.59c3.62,3.72,5.41,8.55,5.35,14.5Zm-29.38-5.96h21.58c-2.4-4.86-5.93-7.28-10.62-7.28-5.1,0-8.76,2.42-10.96,7.28Z"/>
    <rect class="i" x="662.96" y="214.26" width="7.45" height="55.59"/>
    <rect class="i" x="682.19" y="214.26" width="7.45" height="55.59"/>
    <path class="i" d="m699.02,222.91c0-1.54.58-2.88,1.71-4,1.15-1.13,2.5-1.7,4.07-1.7s2.88.58,4,1.7c1.13,1.13,1.69,2.46,1.69,4s-.56,2.91-1.69,4.03-2.46,1.68-4,1.68-2.92-.56-4.07-1.68c-1.14-1.11-1.71-2.46-1.71-4.03Zm2.1,11.6h7.37v35.34h-7.37v-35.34Z"/>
    <path class="i" d="m718.25,269.85v-35.34h7.28v5.87c2.14-2.37,4.07-4.1,5.82-5.2,1.74-1.1,3.68-1.65,5.82-1.65,3.19,0,5.93,1.05,8.2,3.17,2.28,2.12,3.4,4.65,3.4,7.62v25.52h-7.45v-23.35c0-1.91-.61-3.49-1.86-4.75-1.24-1.26-2.81-1.88-4.74-1.88-2.48,0-4.63,1.05-6.42,3.14-1.8,2.1-2.69,4.64-2.69,7.6v19.23h-7.37Z"/>
    <path class="i" d="m787.46,234.51h7.28v33.92c0,5-1.73,9.25-5.16,12.75-3.44,3.5-7.6,5.24-12.48,5.24-3.72,0-7.12-1-10.24-3.01-3.11-2.02-5.4-5.08-6.85-9.19h7.71c2.31,3.83,5.53,5.74,9.64,5.74,2.79,0,5.18-1,7.15-3.02,1.97-2.01,2.96-4.43,2.96-7.26v-6.68c-3.6,5.22-8.14,7.83-13.62,7.83-4.52,0-8.44-1.86-11.81-5.58-3.35-3.73-5.03-8.14-5.03-13.21s1.64-9.43,4.91-13.07c3.27-3.62,7.16-5.43,11.67-5.43,5.82,0,10.45,2.81,13.88,8.44v-7.46Zm1.03,17.61c0-3.32-1.15-6.08-3.45-8.31-2.3-2.23-5.15-3.34-8.54-3.34-3.12,0-5.86,1.16-8.22,3.46-2.37,2.32-3.56,4.99-3.56,8.01,0,3.28,1.17,6.11,3.51,8.48,2.35,2.37,5.13,3.55,8.36,3.55s6.08-1.15,8.41-3.46c2.34-2.31,3.5-5.11,3.5-8.39Z"/>
    <path class="i" d="m864.67,221.37l-6.03,4.85c-1.6-1.66-3.05-2.9-4.34-3.71-1.3-.82-3.17-1.22-5.62-1.22-2.68,0-4.85.6-6.51,1.81-1.68,1.21-2.51,2.78-2.51,4.67,0,1.65.73,3.12,2.19,4.38,1.46,1.27,3.93,2.66,7.44,4.16,3.5,1.51,6.23,2.91,8.19,4.21,1.95,1.3,3.55,2.73,4.81,4.29,1.25,1.57,2.19,3.23,2.8,4.97s.92,3.57.92,5.52c0,4.54-1.65,8.41-4.94,11.6-3.3,3.19-7.29,4.78-11.98,4.78s-8.6-1.25-12.09-3.74c-3.5-2.5-6.19-6.24-8.08-11.23l7.45-2.1c2.7,6.14,6.86,9.2,12.46,9.2,2.72,0,4.97-.81,6.77-2.42,1.8-1.63,2.7-3.67,2.7-6.15,0-1.48-.48-2.96-1.42-4.47-.94-1.49-2.12-2.72-3.51-3.68-1.41-.97-3.63-2.08-6.68-3.34-3.06-1.25-5.41-2.4-7.06-3.44-1.64-1.04-3.07-2.28-4.27-3.72-1.21-1.44-2.09-2.88-2.64-4.31-.56-1.42-.84-2.95-.84-4.58,0-3.9,1.58-7.23,4.71-9.98,3.14-2.75,6.95-4.14,11.44-4.14,2.96,0,5.98.65,9.03,1.92,3.06,1.3,5.6,3.24,7.62,5.87Z"/>
    <path class="i" d="m909.77,253.62h-30.15c.65,3.62,2.14,6.26,4.48,7.94,2.32,1.66,4.86,2.51,7.6,2.51,4.22,0,7.76-1.76,10.62-5.27l5.43,4.11c-4.07,5.29-9.54,7.92-16.4,7.92-5.26,0-9.65-1.79-13.19-5.38-3.55-3.6-5.31-8.08-5.31-13.41,0-4.99,1.79-9.32,5.37-12.99,3.59-3.67,7.95-5.51,13.13-5.51s9.43,1.86,13.06,5.59c3.63,3.72,5.41,8.55,5.36,14.5Zm-29.38-5.96h21.58c-2.4-4.86-5.95-7.28-10.62-7.28-5.11,0-8.77,2.42-10.96,7.28Z"/>
    <path class="i" d="m926.64,234.51v7.29c1.65-2.91,3.28-5.03,4.86-6.33,1.59-1.3,3.65-1.95,6.19-1.95.71,0,1.74.17,3.08.51l-2.28,7.45c-1.42-.28-2.36-.43-2.83-.43-2.51,0-4.61.88-6.31,2.63-1.7,1.76-2.55,3.95-2.55,6.57v19.58h-7.45v-35.34h7.28Z"/>
    <polygon class="i" points="947.41 234.51 955.21 234.51 965.32 254.94 975.14 234.51 983 234.51 965.21 271.17 947.41 234.51"/>
    <path class="i" d="m988.09,222.91c0-1.54.58-2.88,1.71-4,1.15-1.13,2.5-1.7,4.07-1.7s2.88.58,4,1.7,1.69,2.46,1.69,4-.56,2.91-1.69,4.03c-1.13,1.11-2.46,1.68-4,1.68s-2.92-.56-4.07-1.68c-1.14-1.11-1.71-2.46-1.71-4.03Zm2.1,11.6h7.37v35.34h-7.37v-35.34Z"/>
    <path class="i" d="m1035.2,259.06v8.52c-3.79,2.18-7.48,3.25-11.05,3.25-4.88,0-9.15-1.82-12.82-5.49-3.67-3.67-5.51-7.92-5.51-12.74,0-5.48,1.84-10.03,5.48-13.64,3.66-3.61,8.23-5.42,13.75-5.42,3.28,0,6.67.86,10.14,2.57v8.31c-3.73-2.4-7.28-3.6-10.62-3.6-3.08,0-5.78,1.09-8.09,3.25-2.31,2.17-3.47,4.71-3.47,7.62,0,3.28,1.09,6.04,3.25,8.28,2.18,2.24,4.83,3.36,7.97,3.36s6.85-1.43,10.96-4.28Z"/>
    <path class="i" d="m1077.73,253.62h-30.15c.65,3.62,2.14,6.26,4.48,7.94,2.32,1.66,4.86,2.51,7.6,2.51,4.22,0,7.76-1.76,10.62-5.27l5.43,4.11c-4.07,5.29-9.54,7.92-16.4,7.92-5.26,0-9.65-1.79-13.19-5.38-3.55-3.6-5.31-8.08-5.31-13.41,0-4.99,1.79-9.32,5.37-12.99,3.59-3.67,7.95-5.51,13.13-5.51s9.43,1.86,13.06,5.59c3.63,3.72,5.41,8.55,5.36,14.5Zm-29.38-5.96h21.58c-2.4-4.86-5.95-7.28-10.62-7.28-5.11,0-8.77,2.42-10.96,7.28Z"/>
    <path class="i" d="m1107.62,238.72l-4.97,4.36c-1.28-.91-2.4-1.6-3.34-2.07-.94-.48-2.06-.71-3.34-.71-3.03,0-4.54,1.11-4.54,3.34,0,1.6,1.92,3.16,5.76,4.66,3.83,1.51,6.6,3.16,8.28,4.96,1.68,1.79,2.52,3.96,2.52,6.5,0,2.96-1.21,5.56-3.63,7.77-2.43,2.2-5.29,3.3-8.57,3.3-5,0-9.09-2.3-12.3-6.93l5.87-2.84c2.06,2.01,4.2,3.01,6.42,3.01,1.54,0,2.89-.43,4.05-1.27,1.15-.84,1.73-1.81,1.73-2.94,0-1.96-2.02-3.73-6.08-5.31-4.05-1.58-6.85-3.17-8.41-4.78-1.57-1.6-2.34-3.6-2.34-5.96,0-2.95,1.1-5.4,3.32-7.34,2.21-1.96,4.99-2.94,8.33-2.94s7.07,1.73,11.22,5.19Z"/>
  </g>
</svg>